Coordinates
version=1
nRows=13
nColumns=40
inDegrees=yes

Units are S.I. units (second, meters, Newtons, ...)
If the header above contains a line with 'inDegrees', this indicates whether rotational values are in degrees (yes) or radians (no).

endheader
time	pelvis_tilt	pelvis_list	pelvis_rotation	pelvis_tx	pelvis_ty	pelvis_tz	hip_flexion_r	hip_adduction_r	hip_rotation_r	knee_angle_r	knee_angle_r_beta	ankle_angle_r	subtalar_angle_r	mtp_angle_r	hip_flexion_l	hip_adduction_l	hip_rotation_l	knee_angle_l	knee_angle_l_beta	ankle_angle_l	subtalar_angle_l	mtp_angle_l	lumbar_extension	lumbar_bending	lumbar_rotation	arm_flex_r	arm_add_r	arm_rot_r	elbow_flex_r	pro_sup_r	wrist_flex_r	wrist_dev_r	arm_flex_l	arm_add_l	arm_rot_l	elbow_flex_l	pro_sup_l	wrist_flex_l	wrist_dev_l
      3.50000000	      7.14263392	      2.62687880	      2.40826112	     -0.39355857	      0.86216148	     -0.75947106	     35.74460063	      2.09764540	     -1.57915294	     72.82825917	      1.27109291	     23.66423833	      0.00000000	      0.00000000	     58.85054950	      5.03966137	      5.35428198	     13.46355907	      0.23498343	     -7.90552173	      0.00000000	      0.00000000	    -44.30904903	      1.13661353	     -1.04482989	     89.89665240	    -11.76994227	     14.44944256	     50.41935775	     87.05646204	      0.00000000	      0.00000000	     89.92803834	     -7.58222777	     12.26813258	     51.04998200	     85.98372061	      0.00000000	      0.00000000
      3.50500000	      7.10144924	      2.63061548	      2.38914753	     -0.39352170	      0.86336553	     -0.75956153	     35.64818591	      2.05504255	     -1.60333516	     72.55492329	      1.26632230	     23.52413036	      0.00000000	      0.00000000	     58.79978531	      5.02630235	      5.35339852	     13.47791628	      0.23523402	     -7.88608517	      0.00000000	      0.00000000	    -44.25693575	      1.13598710	     -1.03213224	     89.89626676	    -11.78173938	     14.46493625	     50.40817512	     87.05643495	      0.00000000	      0.00000000	     89.92795329	     -7.60227300	     12.29600301	     51.02203634	     85.98758558	      0.00000000	      0.00000000
      3.51000000	      7.03560335	      2.55699320	      2.36932487	     -0.39351312	      0.86443454	     -0.75952975	     35.57717956	      2.10496468	     -1.66317730	     72.25918190	      1.26116064	     23.35365049	      0.00000000	      0.00000000	     58.79202933	      4.94923678	      5.41228924	     13.50653109	      0.23573344	     -7.87008363	      0.00000000	      0.00000000	    -44.16795333	      1.17906920	     -0.98106184	     89.89595670	    -11.78097012	     14.50020426	     50.35540825	     87.05901523	      0.00000000	      0.00000000	     89.92779331	     -7.63284144	     12.33618676	     50.99148609	     85.99308649	      0.00000000	      0.00000000
      3.51500000	      7.00763526	      2.57826098	      2.36721909	     -0.39341422	      0.86575384	     -0.75971949	     35.45763227	      2.03619001	     -1.67754980	     71.98837687	      1.25643420	     23.20161991	      0.00000000	      0.00000000	     58.72486880	      4.96997566	      5.43756175	     13.53877000	      0.23629611	     -7.84880281	      0.00000000	      0.00000000	    -44.14222146	      1.18730300	     -0.97810459	     89.89578828	    -11.81570810	     14.51278681	     50.35709442	     87.06119186	      0.00000000	      0.00000000	     89.92770807	     -7.65393748	     12.35837390	     50.97897473	     85.99726996	      0.00000000	      0.00000000
      3.52000000	      6.98874593	      2.59089400	      2.32624873	     -0.39332433	      0.86699597	     -0.75977210	     35.33616102	      1.99973598	     -1.69328548	     71.72769910	      1.25188451	     23.06557525	      0.00000000	      0.00000000	     58.65176227	      4.93678126	      5.44826151	     13.56962631	      0.23683466	     -7.82748086	      0.00000000	      0.00000000	    -44.10070223	      1.17149897	     -0.95457099	     89.89494377	    -11.80953904	     14.55900768	     50.33316751	     87.06641715	      0.00000000	      0.00000000	     89.92741461	     -7.68219044	     12.38357743	     50.94979061	     86.00060758	      0.00000000	      0.00000000
      3.52500000	      6.94463901	      2.55716350	      2.33037840	     -0.39329257	      0.86818596	     -0.75984943	     35.23968176	      2.01146842	     -1.70601240	     71.43538686	      1.24678270	     22.90742599	      0.00000000	      0.00000000	     58.61819318	      4.91789345	      5.44560091	     13.60068861	      0.23737680	     -7.80404315	      0.00000000	      0.00000000	    -44.04156490	      1.20894749	     -0.94058497	     89.89467870	    -11.82416927	     14.60377103	     50.29375264	     87.07089716	      0.00000000	      0.00000000	     89.92746811	     -7.71705948	     12.39602374	     50.92085518	     86.00202292	      0.00000000	      0.00000000
      3.53000000	      6.91331494	      2.53532962	      2.30323861	     -0.39315817	      0.86948118	     -0.75986333	     35.11311956	      2.02253947	     -1.72224404	     71.13853529	      1.24160167	     22.73581140	      0.00000000	      0.00000000	     58.56228892	      4.87226387	      5.44284759	     13.64152824	      0.23808958	     -7.78204459	      0.00000000	      0.00000000	    -44.00675385	      1.21602438	     -0.92076514	     89.89422516	    -11.83516313	     14.65387856	     50.28770448	     87.07545013	      0.00000000	      0.00000000	     89.92714058	     -7.73883405	     12.43184845	     50.89825027	     86.00688809	      0.00000000	      0.00000000
      3.53500000	      6.91048495	      2.57099440	      2.28161302	     -0.39309438	      0.87079617	     -0.75994245	     34.97120689	      1.96540381	     -1.70874177	     70.87247656	      1.23695807	     22.58369960	      0.00000000	      0.00000000	     58.47334700	      4.87737823	      5.43605650	     13.69180303	      0.23896704	     -7.78086615	      0.00000000	      0.00000000	    -43.98841364	      1.19039545	     -0.91405805	     89.89407228	    -11.84052894	     14.70021477	     50.24835181	     87.08033380	      0.00000000	      0.00000000	     89.92698752	     -7.76485422	     12.44593092	     50.87956309	     86.00922795	      0.00000000	      0.00000000
      3.54000000	      6.87419020	      2.55865936	      2.25109205	     -0.39294726	      0.87200881	     -0.75994147	     34.85776191	      1.97643079	     -1.71573972	     70.58227575	      1.23189311	     22.42464130	      0.00000000	      0.00000000	     58.42471812	      4.83743676	      5.39943181	     13.72136480	      0.23948299	     -7.76295044	      0.00000000	      0.00000000	    -43.92971156	      1.18637002	     -0.90748012	     89.89314614	    -11.83930712	     14.75163410	     50.22770086	     87.08415937	      0.00000000	      0.00000000	     89.92689088	     -7.80116594	     12.46499658	     50.83909923	     86.01063816	      0.00000000	      0.00000000
      3.54500000	      6.82748955	      2.55543724	      2.25273615	     -0.39285903	      0.87304183	     -0.76001878	     34.84942199	      1.96768489	     -1.71758850	     70.51452614	      1.23071065	     22.39749271	      0.00000000	      0.00000000	     58.38967044	      4.83132711	      5.39680365	     13.73564582	      0.23973224	     -7.75820733	      0.00000000	      0.00000000	    -43.87042782	      1.19538665	     -0.90491243	     89.89301040	    -11.84205944	     14.74188203	     50.25111405	     87.08322095	      0.00000000	      0.00000000	     89.92677020	     -7.80667636	     12.45105202	     50.86897031	     86.00975982	      0.00000000	      0.00000000
      3.55000000	      6.76616486	      2.56878002	      2.23141752	     -0.39273793	      0.87433576	     -0.76010323	     34.67881540	      1.93976439	     -1.71187580	     70.03528291	      1.22234628	     22.17404255	      0.00000000	      0.00000000	     58.37537601	      4.81847278	      5.38318663	     13.79167150	      0.24071008	     -7.75345413	      0.00000000	      0.00000000	    -43.77936710	      1.18119722	     -0.91614263	     89.89203780	    -11.84416633	     14.82022931	     50.18100797	     87.08941210	      0.00000000	      0.00000000	     89.92633815	     -7.84850505	     12.49432150	     50.79788118	     86.01377522	      0.00000000	      0.00000000
      3.55500000	      6.79472769	      2.53371910	      2.21865711	     -0.39258161	      0.87570623	     -0.76009507	     34.48906048	      1.99685682	     -1.68773099	     69.73466676	      1.21709954	     21.93459754	      0.00000000	      0.00000000	     58.26059032	      4.78321039	      5.35179655	     13.83803555	      0.24151928	     -7.72581808	      0.00000000	      0.00000000	    -43.78475102	      1.21693270	     -0.90374825	     89.89243479	    -11.82224433	     14.91793493	     50.12358859	     87.09481508	      0.00000000	      0.00000000	     89.92613001	     -7.88209630	     12.52589210	     50.75347225	     86.01788773	      0.00000000	      0.00000000
      3.56000000	      6.73093312	      2.52830139	      2.21669308	     -0.39248844	      0.87683095	     -0.76019754	     34.41899517	      1.98886829	     -1.69342509	     69.47320799	      1.21253622	     21.81508550	      0.00000000	      0.00000000	     58.24462843	      4.78721411	      5.38047147	     13.86515271	      0.24199257	     -7.70938343	      0.00000000	      0.00000000	    -43.69876351	      1.22799969	     -0.89845194	     89.89172697	    -11.84688128	     14.93664327	     50.09839306	     87.09376041	      0.00000000	      0.00000000	     89.92592971	     -7.92105891	     12.52824346	     50.73259415	     86.01767806	      0.00000000	      0.00000000
